<?xml version="1.0" encoding="utf-8"?>
<!-- Generator: Adobe Illustrator 26.0.3, SVG Export Plug-In . SVG Version: 6.00 Build 0)  -->
<svg version="1.1" id="Layer_1" xmlns="http://www.w3.org/2000/svg" xmlns:xlink="http://www.w3.org/1999/xlink" x="0px" y="0px"
	 viewBox="0 0 40 24" style="enable-background:new 0 0 40 24;" xml:space="preserve">
<path  d="M38.98,23.06H1.02c0-7.35,0-14.69,0-22.04c12.66,0,25.31,0,37.97,0V23.06z"/>
<line  x1="8.64" y1="3.3" x2="8.64" y2="20.78"/>
<line  x1="13.86" y1="3.32" x2="13.86" y2="20.8"/>
<line  x1="21.32" y1="3.26" x2="21.32" y2="20.74"/>
<line  x1="12.21" y1="5.35" x2="23.24" y2="5.25"/>
<line  x1="12.12" y1="18.84" x2="23.15" y2="18.74"/>
<line  x1="25.73" y1="3.3" x2="25.73" y2="11.18"/>
<line  x1="29.2" y1="4.3" x2="24.82" y2="4.3"/>
<line  x1="29.2" y1="7.24" x2="24.82" y2="7.24"/>
<line  x1="30.82" y1="3.3" x2="30.82" y2="11.18"/>
<line  x1="34.29" y1="4.3" x2="29.91" y2="4.3"/>
<line  x1="34.29" y1="7.24" x2="29.91" y2="7.24"/>
<line  x1="5.15" y1="5.39" x2="7.97" y2="5.39"/>
</svg>